<svg width="15" height="15" viewBox="0 0 15 15" fill="none" xmlns="http://www.w3.org/2000/svg">
<g clip-path="url(#clip0_60_48)">
<path d="M8.77142 8.34743C9.77136 8.37212 10.7403 7.99934 11.4658 7.31081C12.1914 6.62227 12.6143 5.67416 12.642 4.67429C12.6143 3.67443 12.1914 2.72631 11.4658 2.03778C10.7403 1.34924 9.77136 0.976463 8.77142 1.00115H4.83657C4.7148 1.00115 4.59801 1.04953 4.51191 1.13563C4.4258 1.22174 4.37743 1.33852 4.37743 1.4603V7.42915H3.45914C3.33737 7.42915 3.22059 7.47752 3.13448 7.56363C3.04837 7.64973 3 7.76652 3 7.88829C3 8.01006 3.04837 8.12685 3.13448 8.21295C3.22059 8.29906 3.33737 8.34743 3.45914 8.34743H4.37743V9.26572H3.45914C3.33737 9.26572 3.22059 9.31409 3.13448 9.4002C3.04837 9.4863 3 9.60309 3 9.72486C3 9.84663 3.04837 9.96342 3.13448 10.0495C3.22059 10.1356 3.33737 10.184 3.45914 10.184H4.37743V13.398C4.37743 13.5198 4.4258 13.6366 4.51191 13.7227C4.59801 13.8088 4.7148 13.8571 4.83657 13.8571C4.95834 13.8571 5.07513 13.8088 5.16123 13.7227C5.24734 13.6366 5.29571 13.5198 5.29571 13.398V10.184H9.428C9.54977 10.184 9.66655 10.1356 9.75266 10.0495C9.83876 9.96342 9.88714 9.84663 9.88714 9.72486C9.88714 9.60309 9.83876 9.4863 9.75266 9.4002C9.66655 9.31409 9.54977 9.26572 9.428 9.26572H5.29571V8.34743H8.77142ZM5.29571 1.91944H8.77142C9.52753 1.89586 10.2623 2.17227 10.8154 2.68837C11.3685 3.20447 11.695 3.91836 11.7237 4.67429C11.6962 5.43064 11.37 6.14525 10.8167 6.66159C10.2633 7.17794 9.52786 7.45395 8.77142 7.42915H5.29571V1.91944Z" fill="black" fill-opacity="0.25"/>
</g>
<defs>
<clipPath id="clip0_60_48">
<rect width="15" height="15" fill="white"/>
</clipPath>
</defs>
</svg>
