<svg width="18" height="18" viewBox="0 0 18 18" fill="none" xmlns="http://www.w3.org/2000/svg">
<g clip-path="url(#clip0_22_86)">
<path d="M10.285 10C11.3739 10.0269 12.4291 9.62097 13.2192 8.87116C14.0093 8.12136 14.4699 7.08887 14.5 6.00003C14.4699 4.91119 14.0093 3.87871 13.2192 3.12891C12.4291 2.3791 11.3739 1.97315 10.285 2.00003H6C5.86739 2.00003 5.74021 2.05271 5.64645 2.14648C5.55268 2.24025 5.5 2.36743 5.5 2.50003V9.00003H4.5C4.36739 9.00003 4.24021 9.05271 4.14645 9.14648C4.05268 9.24025 4 9.36743 4 9.50003C4 9.63264 4.05268 9.75982 4.14645 9.85359C4.24021 9.94736 4.36739 10 4.5 10H5.5V11H4.5C4.36739 11 4.24021 11.0527 4.14645 11.1465C4.05268 11.2402 4 11.3674 4 11.5C4 11.6326 4.05268 11.7598 4.14645 11.8536C4.24021 11.9474 4.36739 12 4.5 12H5.5V15.5C5.5 15.6326 5.55268 15.7598 5.64645 15.8536C5.74021 15.9474 5.86739 16 6 16C6.13261 16 6.25979 15.9474 6.35355 15.8536C6.44732 15.7598 6.5 15.6326 6.5 15.5V12H11C11.1326 12 11.2598 11.9474 11.3536 11.8536C11.4473 11.7598 11.5 11.6326 11.5 11.5C11.5 11.3674 11.4473 11.2402 11.3536 11.1465C11.2598 11.0527 11.1326 11 11 11H6.5V10H10.285ZM6.5 3.00003H10.285C11.1084 2.97436 11.9085 3.27537 12.5108 3.83739C13.1131 4.39941 13.4687 5.17683 13.5 6.00003C13.47 6.82369 13.1148 7.60188 12.5122 8.16418C11.9096 8.72648 11.1088 9.02704 10.285 9.00003H6.5V3.00003Z" fill="#8F8F8F"/>
</g>
<defs>
<clipPath id="clip0_22_86">
<rect width="18" height="18" fill="white"/>
</clipPath>
</defs>
</svg>
